<?xml version="1.0" standalone="no"?><!DOCTYPE svg PUBLIC "-//W3C//DTD SVG 1.1//EN" "http://www.w3.org/Graphics/SVG/1.1/DTD/svg11.dtd"><svg t="1591146217816" class="icon" viewBox="0 0 1024 1024" version="1.1" xmlns="http://www.w3.org/2000/svg" p-id="856" xmlns:xlink="http://www.w3.org/1999/xlink" width="200" height="200"><defs><style type="text/css"></style></defs><path d="M511.42336 607.552a20.736 20.736 0 0 1-17.664 0l-302.464-143.36V631.04c0 7.936 4.416 15.168 11.456 18.688l290.56 146.304a20.672 20.672 0 0 0 18.56 0l290.56-146.304a20.864 20.864 0 0 0 11.456-18.688V464.256L511.42336 607.616" fill="#000000" p-id="857"></path><path d="M991.99936 276.672L510.14336 84.16a20.608 20.608 0 0 0-15.296 0L13.18336 276.672a20.864 20.864 0 0 0 0 38.848l178.112 71.168v31.36l311.296 147.52 311.296-147.52v-31.36l83.008-33.152v506.816c0 11.52 9.28 20.864 20.736 20.864 11.52 0 20.736-9.344 20.736-20.864V337.92l-0.128-0.896 53.76-21.504a20.928 20.928 0 0 0 0-38.848" fill="#000000" p-id="858"></path></svg>