<svg xmlns="http://www.w3.org/2000/svg" viewBox="0 0 958.01 958"><defs><style>.cls-1,.cls-5{fill:none;}.cls-1{stroke:#00b0f0;stroke-miterlimit:10;stroke-width:10px;}.cls-2{fill:#00b0f0;}.cls-3{fill:#4d4d4d;}.cls-4{fill:aqua;}</style></defs><title>LOGO</title><g id="图层_2" data-name="图层 2"><path class="cls-1" d="M959.92,77a473.88,473.88,0,0,0-474,474c0,261.79,212.22,474,474,474s474-212.21,474-474S1221.71,77,959.92,77Zm251.73,523.71A256.51,256.51,0,0,1,959.92,807.55c-141.68,0-256.55-114.86-256.55-256.55A256.3,256.3,0,0,1,959.92,294.45c141.69,0,256.55,114.86,256.55,256.55A257.6,257.6,0,0,1,1211.65,600.71Z" transform="translate(-480.92 -72)"/><g id="图层_3" data-name="图层 3"><circle class="cls-2" cx="128.08" cy="159" r="73.54"/></g></g><g id="图层_1" data-name="图层 1"><path class="cls-2" d="M1211.65,600.71a256.79,256.79,0,0,1-122.65,172c-229.71-34.56-333.83-164-353.46-346.21A256.9,256.9,0,0,1,901.24,301.2C913.94,464,1003.76,578.15,1211.65,600.71Z" transform="translate(-480.92 -72)"/><path class="cls-3" d="M1089,772.75a255.26,255.26,0,0,1-129.08,34.8c-141.68,0-256.55-114.86-256.55-256.55a255.28,255.28,0,0,1,32.17-124.46C755.17,608.72,859.29,738.19,1089,772.75Z" transform="translate(-480.92 -72)"/><path class="cls-4" d="M1216.47,551a257.6,257.6,0,0,1-4.82,49.71C1003.76,578.15,913.94,464,901.24,301.2a256.75,256.75,0,0,1,58.68-6.75C1101.61,294.45,1216.47,409.31,1216.47,551Z" transform="translate(-480.92 -72)"/><path class="cls-5" d="M1255.64,604q-22.83-1-44-3.32" transform="translate(-480.92 -72)"/><path class="cls-5" d="M901.24,301.2q-1.62-20.58-1.6-42.17" transform="translate(-480.92 -72)"/><path class="cls-5" d="M1176.81,781a830.75,830.75,0,0,1-87.81-8.27" transform="translate(-480.92 -72)"/><path class="cls-5" d="M735.54,426.54A629.27,629.27,0,0,1,732,358.9" transform="translate(-480.92 -72)"/></g></svg>